<mxfile host="app.diagrams.net" agent="Mozilla/5.0 (Windows NT 10.0; Win64; x64) AppleWebKit/537.36 (KHTML, like Gecko) Chrome/133.0.0.0 Safari/537.36" version="26.0.9">
  <diagram id="C5RBs43oDa-KdzZeNtuy" name="Page-1">
    <mxGraphModel dx="373" dy="424" grid="1" gridSize="10" guides="1" tooltips="1" connect="1" arrows="1" fold="1" page="1" pageScale="1" pageWidth="827" pageHeight="1169" math="0" shadow="0">
      <root>
        <mxCell id="WIyWlLk6GJQsqaUBKTNV-0" />
        <mxCell id="WIyWlLk6GJQsqaUBKTNV-1" parent="WIyWlLk6GJQsqaUBKTNV-0" />
        <mxCell id="0gS7240jSeTBhAyD8oQ2-0" value="Change Password" style="ellipse;whiteSpace=wrap;html=1;" vertex="1" parent="WIyWlLk6GJQsqaUBKTNV-1">
          <mxGeometry x="323" y="270" width="120" height="80" as="geometry" />
        </mxCell>
        <mxCell id="0gS7240jSeTBhAyD8oQ2-1" value="Approve or Disapprove User Detail&lt;div&gt;&lt;br&gt;&lt;/div&gt;" style="ellipse;whiteSpace=wrap;html=1;" vertex="1" parent="WIyWlLk6GJQsqaUBKTNV-1">
          <mxGeometry x="323" y="160" width="120" height="80" as="geometry" />
        </mxCell>
        <mxCell id="0gS7240jSeTBhAyD8oQ2-2" value="Publish Requested News" style="ellipse;whiteSpace=wrap;html=1;" vertex="1" parent="WIyWlLk6GJQsqaUBKTNV-1">
          <mxGeometry x="323" y="380" width="120" height="80" as="geometry" />
        </mxCell>
        <mxCell id="0gS7240jSeTBhAyD8oQ2-3" value="Add or Delete Comment" style="ellipse;whiteSpace=wrap;html=1;" vertex="1" parent="WIyWlLk6GJQsqaUBKTNV-1">
          <mxGeometry x="323" y="480" width="120" height="80" as="geometry" />
        </mxCell>
        <mxCell id="0gS7240jSeTBhAyD8oQ2-4" value="Search or View Specific Topic" style="ellipse;whiteSpace=wrap;html=1;" vertex="1" parent="WIyWlLk6GJQsqaUBKTNV-1">
          <mxGeometry x="323" y="600" width="120" height="80" as="geometry" />
        </mxCell>
        <mxCell id="0gS7240jSeTBhAyD8oQ2-5" value="Edit News&lt;div&gt;&lt;br&gt;&lt;/div&gt;" style="ellipse;whiteSpace=wrap;html=1;" vertex="1" parent="WIyWlLk6GJQsqaUBKTNV-1">
          <mxGeometry x="323" y="705" width="120" height="80" as="geometry" />
        </mxCell>
        <mxCell id="0gS7240jSeTBhAyD8oQ2-6" value="" style="shape=umlActor;verticalLabelPosition=bottom;verticalAlign=top;html=1;outlineConnect=0;" vertex="1" parent="WIyWlLk6GJQsqaUBKTNV-1">
          <mxGeometry x="103" y="380" width="50" height="80" as="geometry" />
        </mxCell>
        <mxCell id="0gS7240jSeTBhAyD8oQ2-15" value="" style="endArrow=classic;html=1;rounded=0;" edge="1" parent="WIyWlLk6GJQsqaUBKTNV-1">
          <mxGeometry width="50" height="50" relative="1" as="geometry">
            <mxPoint x="163" y="462.5" as="sourcePoint" />
            <mxPoint x="330" y="330" as="targetPoint" />
          </mxGeometry>
        </mxCell>
        <mxCell id="0gS7240jSeTBhAyD8oQ2-16" value="" style="endArrow=classic;html=1;rounded=0;entryX=0.021;entryY=0.673;entryDx=0;entryDy=0;entryPerimeter=0;" edge="1" parent="WIyWlLk6GJQsqaUBKTNV-1" target="0gS7240jSeTBhAyD8oQ2-1">
          <mxGeometry width="50" height="50" relative="1" as="geometry">
            <mxPoint x="163" y="460" as="sourcePoint" />
            <mxPoint x="213" y="410" as="targetPoint" />
          </mxGeometry>
        </mxCell>
        <mxCell id="0gS7240jSeTBhAyD8oQ2-18" value="" style="endArrow=classic;html=1;rounded=0;entryX=0;entryY=0.5;entryDx=0;entryDy=0;" edge="1" parent="WIyWlLk6GJQsqaUBKTNV-1" target="0gS7240jSeTBhAyD8oQ2-2">
          <mxGeometry width="50" height="50" relative="1" as="geometry">
            <mxPoint x="163" y="462.5" as="sourcePoint" />
            <mxPoint x="273" y="462.5" as="targetPoint" />
          </mxGeometry>
        </mxCell>
        <mxCell id="0gS7240jSeTBhAyD8oQ2-19" value="" style="endArrow=classic;html=1;rounded=0;entryX=0;entryY=0.5;entryDx=0;entryDy=0;" edge="1" parent="WIyWlLk6GJQsqaUBKTNV-1" target="0gS7240jSeTBhAyD8oQ2-3">
          <mxGeometry width="50" height="50" relative="1" as="geometry">
            <mxPoint x="163" y="472.5" as="sourcePoint" />
            <mxPoint x="283" y="472.5" as="targetPoint" />
          </mxGeometry>
        </mxCell>
        <mxCell id="0gS7240jSeTBhAyD8oQ2-20" value="" style="endArrow=classic;html=1;rounded=0;entryX=0;entryY=0.5;entryDx=0;entryDy=0;" edge="1" parent="WIyWlLk6GJQsqaUBKTNV-1" target="0gS7240jSeTBhAyD8oQ2-4">
          <mxGeometry width="50" height="50" relative="1" as="geometry">
            <mxPoint x="163" y="472.5" as="sourcePoint" />
            <mxPoint x="293" y="482.5" as="targetPoint" />
          </mxGeometry>
        </mxCell>
        <mxCell id="0gS7240jSeTBhAyD8oQ2-26" value="" style="endArrow=classic;html=1;rounded=0;entryX=0;entryY=0.5;entryDx=0;entryDy=0;" edge="1" parent="WIyWlLk6GJQsqaUBKTNV-1" target="0gS7240jSeTBhAyD8oQ2-5">
          <mxGeometry width="50" height="50" relative="1" as="geometry">
            <mxPoint x="163" y="472.5" as="sourcePoint" />
            <mxPoint x="313" y="502.5" as="targetPoint" />
          </mxGeometry>
        </mxCell>
        <mxCell id="0gS7240jSeTBhAyD8oQ2-28" value="Admin" style="whiteSpace=wrap;html=1;verticalAlign=top;" vertex="1" parent="WIyWlLk6GJQsqaUBKTNV-1">
          <mxGeometry x="93" y="452.5" width="70" height="30" as="geometry" />
        </mxCell>
        <mxCell id="0gS7240jSeTBhAyD8oQ2-31" value="Actor" style="shape=umlActor;verticalLabelPosition=bottom;verticalAlign=top;html=1;outlineConnect=0;" vertex="1" parent="WIyWlLk6GJQsqaUBKTNV-1">
          <mxGeometry x="653" y="320.5" width="30" height="60" as="geometry" />
        </mxCell>
        <mxCell id="0gS7240jSeTBhAyD8oQ2-32" value="Actor" style="shape=umlActor;verticalLabelPosition=bottom;verticalAlign=top;html=1;outlineConnect=0;" vertex="1" parent="WIyWlLk6GJQsqaUBKTNV-1">
          <mxGeometry x="653" y="552.5" width="30" height="60" as="geometry" />
        </mxCell>
        <mxCell id="0gS7240jSeTBhAyD8oQ2-33" value="Registered User" style="rounded=0;whiteSpace=wrap;html=1;" vertex="1" parent="WIyWlLk6GJQsqaUBKTNV-1">
          <mxGeometry x="603" y="380" width="130" height="52" as="geometry" />
        </mxCell>
        <mxCell id="0gS7240jSeTBhAyD8oQ2-34" value="Unregistered User" style="rounded=0;whiteSpace=wrap;html=1;" vertex="1" parent="WIyWlLk6GJQsqaUBKTNV-1">
          <mxGeometry x="603" y="612.5" width="130" height="52" as="geometry" />
        </mxCell>
        <mxCell id="0gS7240jSeTBhAyD8oQ2-35" value="" style="endArrow=classic;html=1;rounded=0;exitX=0;exitY=0.5;exitDx=0;exitDy=0;" edge="1" parent="WIyWlLk6GJQsqaUBKTNV-1" source="0gS7240jSeTBhAyD8oQ2-33" target="0gS7240jSeTBhAyD8oQ2-0">
          <mxGeometry width="50" height="50" relative="1" as="geometry">
            <mxPoint x="593" y="402.5" as="sourcePoint" />
            <mxPoint x="553" y="382.5" as="targetPoint" />
          </mxGeometry>
        </mxCell>
        <mxCell id="0gS7240jSeTBhAyD8oQ2-36" value="" style="endArrow=classic;html=1;rounded=0;exitX=0;exitY=0.5;exitDx=0;exitDy=0;entryX=1;entryY=0.5;entryDx=0;entryDy=0;" edge="1" parent="WIyWlLk6GJQsqaUBKTNV-1" source="0gS7240jSeTBhAyD8oQ2-33" target="0gS7240jSeTBhAyD8oQ2-3">
          <mxGeometry width="50" height="50" relative="1" as="geometry">
            <mxPoint x="613" y="416.5" as="sourcePoint" />
            <mxPoint x="443" y="341.5" as="targetPoint" />
          </mxGeometry>
        </mxCell>
        <mxCell id="0gS7240jSeTBhAyD8oQ2-37" value="" style="endArrow=classic;html=1;rounded=0;entryX=1;entryY=0.406;entryDx=0;entryDy=0;entryPerimeter=0;" edge="1" parent="WIyWlLk6GJQsqaUBKTNV-1" target="0gS7240jSeTBhAyD8oQ2-4">
          <mxGeometry width="50" height="50" relative="1" as="geometry">
            <mxPoint x="603" y="406.5" as="sourcePoint" />
            <mxPoint x="443" y="372.5" as="targetPoint" />
          </mxGeometry>
        </mxCell>
        <mxCell id="0gS7240jSeTBhAyD8oQ2-39" value="" style="endArrow=classic;html=1;rounded=0;exitX=0;exitY=0.5;exitDx=0;exitDy=0;entryX=1;entryY=0.5;entryDx=0;entryDy=0;" edge="1" parent="WIyWlLk6GJQsqaUBKTNV-1" source="0gS7240jSeTBhAyD8oQ2-34" target="0gS7240jSeTBhAyD8oQ2-4">
          <mxGeometry width="50" height="50" relative="1" as="geometry">
            <mxPoint x="413" y="622.5" as="sourcePoint" />
            <mxPoint x="463" y="572.5" as="targetPoint" />
          </mxGeometry>
        </mxCell>
      </root>
    </mxGraphModel>
  </diagram>
</mxfile>
